0
SECTION
2
HEADER
9
$INSUNITS
70
4
9
$ACADVER
1
AC1014
9
$HANDSEED
5
FFFF
0
ENDSEC
0
SECTION
2
TABLES
0
TABLE
2
VPORT
5
8
100
AcDbSymbolTable
0
ENDTAB
0
TABLE
2
LTYPE
5
5
100
AcDbSymbolTable
0
LTYPE
5
14
100
AcDbSymbolTableRecord
100
AcDbLinetypeTableRecord
2
BYBLOCK
70
0
0
LTYPE
5
15
100
AcDbSymbolTableRecord
100
AcDbLinetypeTableRecord
2
BYLAYER
70
0
0
ENDTAB
0
TABLE
2
LAYER
5
2
100
AcDbSymbolTable
70
2
0
LAYER
5
50
100
AcDbSymbolTableRecord
100
AcDbLayerTableRecord
2
0
70
0
6
CONTINUOUS
0
ENDTAB
0
TABLE
2
STYLE
5
3
100
AcDbSymbolTable
70
1
0
STYLE
5
11
100
AcDbSymbolTableRecord
100
AcDbTextStyleTableRecord
2
STANDARD
70
0
0
ENDTAB
0
TABLE
2
VIEW
5
6
100
AcDbSymbolTable
70
0
0
ENDTAB
0
TABLE
2
UCS
5
7
100
AcDbSymbolTable
70
0
0
ENDTAB
0
TABLE
2
APPID
5
9
100
AcDbSymbolTable
70
2
0
APPID
5
12
100
AcDbSymbolTableRecord
100
AcDbRegAppTableRecord
2
ACAD
70
0
0
ENDTAB
0
TABLE
2
DIMSTYLE
5
A
100
AcDbSymbolTable
70
1
0
ENDTAB
0
TABLE
2
BLOCK_RECORD
5
1
100
AcDbSymbolTable
70
1
0
BLOCK_RECORD
5
1F
100
AcDbSymbolTableRecord
100
AcDbBlockTableRecord
2
*MODEL_SPACE
0
BLOCK_RECORD
5
1B
100
AcDbSymbolTableRecord
100
AcDbBlockTableRecord
2
*PAPER_SPACE
0
ENDTAB
0
ENDSEC
0
SECTION
2
BLOCKS
0
BLOCK
5
20
100
AcDbEntity
100
AcDbBlockBegin
2
*MODEL_SPACE
0
ENDBLK
5
21
100
AcDbEntity
100
AcDbBlockEnd
0
BLOCK
5
1C
100
AcDbEntity
100
AcDbBlockBegin
2
*PAPER_SPACE
0
ENDBLK
5
1D
100
AcDbEntity
100
AcDbBlockEnd
0
ENDSEC
0
SECTION
2
ENTITIES
0
LWPOLYLINE
5
100
100
AcDbEntity
8
0
100
AcDbPolyline
90
20
70
1
43
0.0
10
3.000000044703484
20
1.8840402866513384
10
90.750000044703469
20
1.8840402866513393
10
90.750000044703469
20
2.1840403313548178
42
-0.41421356237309437
10
91.250000044703484
20
2.6840403313548173
10
96.250000044703484
20
2.684040331354824
42
-0.41421356237309459
10
96.750000044703484
20
2.1840403313548178
10
96.750000044703484
20
1.8840402866513388
10
184.50000278651714
20
1.8840402866513404
10
184.50000278651714
20
3.3289449972783034
10
184.49999999999994
20
6.6839999552965068
10
184.50000004470348
20
6.6840402866513422
10
187.49999999999997
20
6.6840402866513422
10
187.49999999999997
20
93.684040286651395
10
184.50000004470348
20
93.684040286651395
10
184.49999999999994
20
99.684040286651367
10
3.0000000447034836
20
99.684040286651395
10
3.0000000447034836
20
93.684040286651395
10
4.4703483137453759e-08
20
93.684040286651395
10
4.4703483137453759e-08
20
6.6840402866513493
10
3.0000000447034836
20
6.6840402866513422
0
LWPOLYLINE
5
101
100
AcDbEntity
8
0
100
AcDbPolyline
90
8
70
1
43
0.0
10
96.250000044703484
20
51.184040331354872
10
96.250000044703484
20
49.184040331354865
42
-0.41421356237309503
10
95.750000044703469
20
48.684040331354865
10
91.750000044703484
20
48.684040331354851
42
-0.41421356237309503
10
91.250000044703484
20
49.184040331354865
10
91.250000044703484
20
51.184040331354872
42
-0.41421356237309503
10
91.750000044703484
20
51.684040331354872
10
95.750000044703469
20
51.684040331354879
42
-0.41421356237309503
0
CIRCLE
5
102
100
AcDbEntity
8
0
100
AcDbCircle
10
146.00000011920929
20
57.384040405860652
30
2.203098814490545e-15
40
1.6999999999999997
210
0
220
-5.5511151231257827e-17
230
1
0
CIRCLE
5
103
100
AcDbEntity
8
0
100
AcDbCircle
10
133.50000064074996
20
9.3840404058606293
30
5.377642775528102e-16
40
1.6999999999999997
210
0
220
-5.5511151231257827e-17
230
1
0
CIRCLE
5
104
100
AcDbEntity
8
0
100
AcDbCircle
10
116.75000004470348
20
74.184040331354851
30
-1.7347234759768071e-17
40
19.000000000000011
210
0
220
-1.1102230246251564e-16
230
1
0
CIRCLE
5
105
100
AcDbEntity
8
0
100
AcDbCircle
10
54.00000011920929
20
57.384040405860652
30
2.203098814490545e-15
40
1.6999999999999997
210
0
220
-5.5511151231257827e-17
230
1
0
CIRCLE
5
106
100
AcDbEntity
8
0
100
AcDbCircle
10
41.500000640749938
20
9.3840404058606293
30
5.377642775528102e-16
40
1.6999999999999997
210
0
220
-5.5511151231257827e-17
230
1
0
CIRCLE
5
107
100
AcDbEntity
8
0
100
AcDbCircle
10
41.500000640749938
20
57.384040405860652
30
2.203098814490545e-15
40
1.6999999999999997
210
0
220
-5.5511151231257827e-17
230
1
0
CIRCLE
5
108
100
AcDbEntity
8
0
100
AcDbCircle
10
8.0000001192092878
20
57.384040405860652
30
2.203098814490545e-15
40
1.6999999999999997
210
0
220
-5.5511151231257827e-17
230
1
0
CIRCLE
5
109
100
AcDbEntity
8
0
100
AcDbCircle
10
54.00000011920929
20
9.3840404058606293
30
5.377642775528102e-16
40
1.6999999999999997
210
0
220
-5.5511151231257827e-17
230
1
0
CIRCLE
5
110
100
AcDbEntity
8
0
100
AcDbCircle
10
70.750000044703484
20
74.184040331354851
30
-1.7347234759768071e-17
40
19.000000000000011
210
0
220
-1.1102230246251564e-16
230
1
0
CIRCLE
5
111
100
AcDbEntity
8
0
100
AcDbCircle
10
133.50000064074996
20
57.384040405860652
30
2.203098814490545e-15
40
1.6999999999999997
210
0
220
-5.5511151231257827e-17
230
1
0
CIRCLE
5
112
100
AcDbEntity
8
0
100
AcDbCircle
10
146.00000011920929
20
9.3840404058606293
30
5.377642775528102e-16
40
1.6999999999999997
210
0
220
-5.5511151231257827e-17
230
1
0
CIRCLE
5
113
100
AcDbEntity
8
0
100
AcDbCircle
10
162.75000004470348
20
74.184040331354851
30
-1.7347234759768071e-17
40
19.000000000000025
210
0
220
0
230
1
0
CIRCLE
5
114
100
AcDbEntity
8
0
100
AcDbCircle
10
162.75000004470348
20
26.184040331354833
30
-1.7347234759768071e-17
40
19.000000000000025
210
0
220
0
230
1
0
CIRCLE
5
115
100
AcDbEntity
8
0
100
AcDbCircle
10
100.0000001192093
20
9.3840404058606293
30
5.377642775528102e-16
40
1.6999999999999997
210
0
220
-5.5511151231257827e-17
230
1
0
CIRCLE
5
116
100
AcDbEntity
8
0
100
AcDbCircle
10
100.0000001192093
20
57.384040405860652
30
2.203098814490545e-15
40
1.6999999999999997
210
0
220
-5.5511151231257827e-17
230
1
0
CIRCLE
5
117
100
AcDbEntity
8
0
100
AcDbCircle
10
70.750000044703484
20
26.184040331354833
30
-1.7347234759768071e-17
40
19.000000000000011
210
0
220
-1.1102230246251564e-16
230
1
0
CIRCLE
5
118
100
AcDbEntity
8
0
100
AcDbCircle
10
8.0000001192092878
20
9.3840404058606293
30
5.377642775528102e-16
40
1.6999999999999997
210
0
220
-5.5511151231257827e-17
230
1
0
CIRCLE
5
119
100
AcDbEntity
8
0
100
AcDbCircle
10
24.750000044703484
20
74.184040331354851
30
-1.7347234759768071e-17
40
19.000000000000018
210
0
220
-5.5511151231257815e-17
230
1
0
CIRCLE
5
120
100
AcDbEntity
8
0
100
AcDbCircle
10
24.750000044703484
20
26.184040331354833
30
-1.7347234759768071e-17
40
19.000000000000018
210
0
220
-5.5511151231257815e-17
230
1
0
CIRCLE
5
121
100
AcDbEntity
8
0
100
AcDbCircle
10
87.500000640749946
20
9.3840404058606293
30
5.377642775528102e-16
40
1.6999999999999997
210
0
220
-5.5511151231257827e-17
230
1
0
CIRCLE
5
122
100
AcDbEntity
8
0
100
AcDbCircle
10
87.500000640749946
20
57.384040405860652
30
2.203098814490545e-15
40
1.6999999999999997
210
0
220
-5.5511151231257827e-17
230
1
0
CIRCLE
5
123
100
AcDbEntity
8
0
100
AcDbCircle
10
116.75000004470348
20
26.184040331354833
30
-1.7347234759768071e-17
40
19.000000000000011
210
0
220
-1.1102230246251564e-16
230
1
0
CIRCLE
5
124
100
AcDbEntity
8
0
100
AcDbCircle
10
179.50000064074999
20
9.3840404058606293
30
5.377642775528102e-16
40
1.6999999999999997
210
0
220
-5.5511151231257827e-17
230
1
0
CIRCLE
5
125
100
AcDbEntity
8
0
100
AcDbCircle
10
179.50000064074999
20
57.384040405860652
30
2.203098814490545e-15
40
1.6999999999999997
210
0
220
-5.5511151231257827e-17
230
1
0
ENDSEC
0
SECTION
2
OBJECTS
0
DICTIONARY
5
C
100
AcDbDictionary
3
ACAD_GROUP
350
D
3
ACAD_MLINESTYLE
350
17
0
DICTIONARY
5
D
100
AcDbDictionary
0
DICTIONARY
5
1A
330
C
100
AcDbDictionary
0
DICTIONARY
5
17
100
AcDbDictionary
0
ENDSEC
0
EOF
