0
SECTION
2
HEADER
9
$INSUNITS
70
4
9
$ACADVER
1
AC1014
9
$HANDSEED
5
FFFF
0
ENDSEC
0
SECTION
2
TABLES
0
TABLE
2
VPORT
5
8
100
AcDbSymbolTable
0
ENDTAB
0
TABLE
2
LTYPE
5
5
100
AcDbSymbolTable
0
LTYPE
5
14
100
AcDbSymbolTableRecord
100
AcDbLinetypeTableRecord
2
BYBLOCK
70
0
0
LTYPE
5
15
100
AcDbSymbolTableRecord
100
AcDbLinetypeTableRecord
2
BYLAYER
70
0
0
ENDTAB
0
TABLE
2
LAYER
5
2
100
AcDbSymbolTable
70
2
0
LAYER
5
50
100
AcDbSymbolTableRecord
100
AcDbLayerTableRecord
2
0
70
0
6
CONTINUOUS
0
ENDTAB
0
TABLE
2
STYLE
5
3
100
AcDbSymbolTable
70
1
0
STYLE
5
11
100
AcDbSymbolTableRecord
100
AcDbTextStyleTableRecord
2
STANDARD
70
0
0
ENDTAB
0
TABLE
2
VIEW
5
6
100
AcDbSymbolTable
70
0
0
ENDTAB
0
TABLE
2
UCS
5
7
100
AcDbSymbolTable
70
0
0
ENDTAB
0
TABLE
2
APPID
5
9
100
AcDbSymbolTable
70
2
0
APPID
5
12
100
AcDbSymbolTableRecord
100
AcDbRegAppTableRecord
2
ACAD
70
0
0
ENDTAB
0
TABLE
2
DIMSTYLE
5
A
100
AcDbSymbolTable
70
1
0
ENDTAB
0
TABLE
2
BLOCK_RECORD
5
1
100
AcDbSymbolTable
70
1
0
BLOCK_RECORD
5
1F
100
AcDbSymbolTableRecord
100
AcDbBlockTableRecord
2
*MODEL_SPACE
0
BLOCK_RECORD
5
1B
100
AcDbSymbolTableRecord
100
AcDbBlockTableRecord
2
*PAPER_SPACE
0
ENDTAB
0
ENDSEC
0
SECTION
2
BLOCKS
0
BLOCK
5
20
100
AcDbEntity
100
AcDbBlockBegin
2
*MODEL_SPACE
0
ENDBLK
5
21
100
AcDbEntity
100
AcDbBlockEnd
0
BLOCK
5
1C
100
AcDbEntity
100
AcDbBlockBegin
2
*PAPER_SPACE
0
ENDBLK
5
1D
100
AcDbEntity
100
AcDbBlockEnd
0
ENDSEC
0
SECTION
2
ENTITIES
0
LWPOLYLINE
5
100
100
AcDbEntity
8
0
100
AcDbPolyline
90
29
70
1
43
0.0
10
-66.502315256232706
20
6.0584587755858346
10
-68.447975559076866
20
6.5214987154791695
10
-69.619755234576118
20
1.5977653571349215
42
0.058476470414993702
10
-69.837114023199518
20
-0.2543944024384151
10
-69.837114023199518
20
-3.3159597133486662
42
0.4142135623730952
10
-64.837114023199518
20
-8.3159597133486702
10
-61.837114023199504
20
-8.3159597133486667
42
0.23606797749979047
10
-57.837114023199504
20
-6.3159597133486578
42
-0.23606797749978925
10
-53.837114023199504
20
-4.315959713348664
10
-41.047344169333265
20
-4.3159597133486578
10
-41.047344169333265
20
-2.3159597133486582
10
-29.047344169333265
20
-2.3159597133486582
10
-29.047344169333265
20
-4.3159597133486578
10
-16.120614758428182
20
-4.3159597133486587
42
-0.23606797749978972
10
-12.120614758428182
20
-6.3159597133486622
42
0.23606797749978978
10
-8.1206147584281823
20
-8.3159597133486614
10
-5.1206147584281814
20
-8.3159597133486578
42
0.4142135623730952
10
-0.12061475842818303
20
-3.3159597133486578
10
-0.12061475842818359
20
-1.9608644239756423
42
0.087488663525923313
10
-1.0252254466395565
20
3.1694377259093862
10
-2.1727356183821946
20
6.3221960113667919
10
-4.0521208599540115
20
5.638155724715455
10
-33.807873329287197
20
87.391413733089522
10
-31.928488087715373
20
88.075454019740846
10
-34.319916123261443
20
94.645848547654396
42
0.63130113605271698
10
-46.901522851874169
20
95.8509970961085
42
0.076754299605320569
10
-47.59242514631115
20
94.155011585730961
10
-48.981544965991183
20
88.318030677198522
10
-47.035884663147023
20
87.854990737305187
0
CIRCLE
5
101
100
AcDbEntity
8
0
100
AcDbCircle
10
-40.880608947669394
20
92.555516479333946
30
0
40
5.1500000000000004
210
0
220
-0
230
1
0
CIRCLE
5
102
100
AcDbEntity
8
0
100
AcDbCircle
10
-6.8781560011706748
20
-1.3159597133486622
30
0
40
5.1500000000000004
210
0
220
-0
230
1
0
CIRCLE
5
103
100
AcDbEntity
8
0
100
AcDbCircle
10
-63.18060894766937
20
-1.3159597133486578
30
0
40
5.1500000000000004
210
0
220
-0
230
1
0
ENDSEC
0
SECTION
2
OBJECTS
0
DICTIONARY
5
C
100
AcDbDictionary
3
ACAD_GROUP
350
D
3
ACAD_MLINESTYLE
350
17
0
DICTIONARY
5
D
100
AcDbDictionary
0
DICTIONARY
5
1A
330
C
100
AcDbDictionary
0
DICTIONARY
5
17
100
AcDbDictionary
0
ENDSEC
0
EOF
